HIERARCHY
ROOT SpineBase
{
  OFFSET 0.000000 0.000000 0.000000
  CHANNELS 6 Xposition Yposition Zposition Zrotation Xrotation Yrotation
  JOINT SpineMid
  {
    OFFSET 0.000000 28.781572 0.000000
    CHANNELS 3 Zrotation Xrotation Yrotation
    JOINT SpineShoulder
    {
      OFFSET -0.540404 21.582971 -1.270103
      CHANNELS 3 Zrotation Xrotation Yrotation
      JOINT Neck
      {
        OFFSET -0.190231 7.193509 -0.766285
        CHANNELS 3 Zrotation Xrotation Yrotation
        JOINT Head
        {
          OFFSET -1.742581 11.924593 -1.928293
          CHANNELS 3 Zrotation Xrotation Yrotation
          End Site
          {
            OFFSET 0 0 0
          }
        }
      }
      JOINT ShoulderLeft
      {
        OFFSET -17.189900 -3.139808 3.282324
        CHANNELS 3 Zrotation Xrotation Yrotation
        JOINT ElbowLeft
        {
          OFFSET -3.594394 -26.786862 1.886870
          CHANNELS 3 Zrotation Xrotation Yrotation
          JOINT WristLeft
          {
            OFFSET -4.548298 -26.300226 -2.721592
            CHANNELS 3 Zrotation Xrotation Yrotation
            JOINT HandLeft
            {
              OFFSET -0.403740 -7.318861 -2.469298
              CHANNELS 3 Zrotation Xrotation Yrotation
              JOINT HandTipLeft
              {
                OFFSET -0.065094 -3.371724 -1.833988
                CHANNELS 3 Zrotation Xrotation Yrotation
                End Site
                {
                  OFFSET 0 0 0
                }
              }
              JOINT ThumbLeft
              {
                OFFSET 0.950631 -2.550223 -4.211986
                CHANNELS 3 Zrotation Xrotation Yrotation
                End Site
                {
                  OFFSET 0 0 0
                }
              }
            }
          }
        }
      }
      JOINT ShoulderRight
      {
        OFFSET 10.996829 -1.776207 -3.101311
        CHANNELS 3 Zrotation Xrotation Yrotation
        JOINT ElbowRight
        {
          OFFSET 8.481378 -24.842632 2.335376
          CHANNELS 3 Zrotation Xrotation Yrotation
          JOINT WristRight
          {
            OFFSET 3.340709 -22.805585 -5.345059
            CHANNELS 3 Zrotation Xrotation Yrotation
            JOINT HandRight
            {
              OFFSET -3.058293 -5.719740 -4.132283
              CHANNELS 3 Zrotation Xrotation Yrotation
              JOINT HandTipRight
              {
                OFFSET 0.292256 -2.665872 -1.460870
                CHANNELS 3 Zrotation Xrotation Yrotation
                End Site
                {
                  OFFSET 0 0 0
                }
              }
              JOINT ThumbRight
              {
                OFFSET 1.281905 -0.440621 -2.017865
                CHANNELS 3 Zrotation Xrotation Yrotation
                End Site
                {
                  OFFSET 0 0 0
                }
              }
            }
          }
        }
      }
    }
  }
  JOINT HipLeft
  {
    OFFSET -7.468607 1.286068 -2.787806
    CHANNELS 3 Zrotation Xrotation Yrotation
    JOINT KneeLeft
    {
      OFFSET 17.417509 -39.947340 -5.147212
      CHANNELS 3 Zrotation Xrotation Yrotation
      JOINT AnkleLeft
      {
        OFFSET -15.548836 -33.194635 15.420636
        CHANNELS 3 Zrotation Xrotation Yrotation
        JOINT FootLeft
        {
          OFFSET -1.943123 -3.596096 -13.470553
          CHANNELS 3 Zrotation Xrotation Yrotation
          End Site
          {
            OFFSET 0 0 0
          }
        }
      }
    }
  }
  JOINT HipRight
  {
    OFFSET 9.052622 1.527096 -4.766587
    CHANNELS 3 Zrotation Xrotation Yrotation
    JOINT KneeRight
    {
      OFFSET 6.840175 -34.141150 -7.191572
      CHANNELS 3 Zrotation Xrotation Yrotation
      JOINT AnkleRight
      {
        OFFSET -4.587492 -38.287508 10.546410
        CHANNELS 3 Zrotation Xrotation Yrotation
        JOINT FootRight
        {
          OFFSET -7.427224 -5.546812 1.029802
          CHANNELS 3 Zrotation Xrotation Yrotation
          End Site
          {
            OFFSET 0 0 0
          }
        }
      }
    }
  }
}
MOTION
Frames: 6
Frame Time: 0.033333
-81.000226 78.959854 343.111026 -0.000000 0.000000 6.829895 -0.000000 0.000000 -6.829895 -0.000000 0.000000 0.000000 -0.000000 0.000000 0.000000 0.000000 0.000000 0.000000 -0.000000 0.000000 0.000000 -0.000000 0.000000 0.000000 -0.000000 0.000000 0.000000 -0.000000 0.000000 0.000000 0.000000 0.000000 0.000000 0.000000 0.000000 0.000000 -0.000000 0.000000 0.000000 -0.000000 0.000000 0.000000 -0.000000 0.000000 0.000000 -0.000000 0.000000 0.000000 0.000000 0.000000 0.000000 0.000000 0.000000 0.000000 -0.000000 0.000000 -6.829895 -0.000000 0.000000 0.000000 -0.000000 0.000000 0.000000 0.000000 0.000000 0.000000 -0.000000 0.000000 -6.829895 -0.000000 0.000000 0.000000 -0.000000 0.000000 0.000000 0.000000 0.000000 0.000000
-81.539848 79.018936 343.282064 -0.260684 -0.190475 7.826690 -0.660155 0.202159 -7.882038 0.942136 0.081027 0.056797 -0.000000 0.000000 0.000000 0.000000 0.000000 0.000000 -0.000000 0.000000 0.000000 -0.000000 0.000000 0.000000 -0.000000 0.000000 0.000000 -0.000000 0.000000 0.000000 0.000000 0.000000 0.000000 0.000000 0.000000 0.000000 -2.035436 -0.169572 -0.253773 2.034675 0.178477 0.247592 3.300297 -5.151545 0.546010 -3.264439 5.174305 -0.249958 0.000000 0.000000 0.000000 0.000000 0.000000 0.000000 0.284195 0.153199 -7.827503 -0.000000 0.000000 0.000000 -0.000000 0.000000 0.000000 0.000000 0.000000 0.000000 3.004981 -0.089378 -8.375006 -2.727107 -0.156246 0.542268 3.398272 -8.076900 11.980221 0.000000 0.000000 0.000000
-81.802261 79.049696 343.432331 -0.239491 -0.362365 8.625164 -1.269691 0.413066 -8.711978 0.563541 0.060753 -0.012984 0.992950 0.086341 0.107295 0.000000 0.000000 0.000000 0.992950 0.086341 0.107295 -0.000000 0.000000 0.000000 -0.000000 0.000000 0.000000 -0.000000 0.000000 0.000000 0.000000 0.000000 0.000000 0.000000 0.000000 0.000000 -2.483035 -0.239807 -0.337905 4.109243 -0.422980 0.169380 4.716262 -7.316699 1.139448 -5.617625 8.898595 0.147667 0.000000 0.000000 0.000000 0.000000 0.000000 0.000000 1.292356 0.846520 -8.463617 -0.913228 -0.665696 -0.178642 -0.000000 0.000000 0.000000 0.000000 0.000000 0.000000 4.703266 0.050663 -9.482942 -4.396713 -0.458074 0.824248 6.514812 -12.008170 18.944089 0.000000 0.000000 0.000000
-81.787466 79.052133 343.561829 0.063870 -0.515369 9.230541 -1.829064 0.623437 -9.325155 0.561483 0.059034 -0.027001 1.279523 0.138281 0.138396 0.000000 0.000000 0.000000 1.279523 0.138281 0.138396 -0.000000 0.000000 0.000000 -0.000000 0.000000 0.000000 -0.000000 0.000000 0.000000 0.000000 0.000000 0.000000 0.000000 0.000000 0.000000 -2.984479 -0.324371 -0.431127 5.035787 -0.442265 0.225766 5.694163 -8.576704 1.323639 -6.015289 11.377701 -0.068398 0.000000 0.000000 0.000000 0.000000 0.000000 0.000000 0.990298 1.303425 -8.948692 -0.836917 -0.925741 -0.303849 -0.000000 0.000000 0.000000 0.000000 0.000000 0.000000 5.137315 0.505530 -10.169649 -5.040211 -0.887210 0.854474 8.869551 -13.474657 22.394849 0.000000 0.000000 0.000000
-81.495462 79.026248 343.670556 0.648737 -0.649196 9.642444 -2.339197 0.825290 -9.721839 0.369627 0.035636 -0.045910 1.425293 0.195670 0.154554 0.000000 0.000000 0.000000 1.425293 0.195670 0.154554 -0.000000 0.000000 0.000000 -0.000000 0.000000 0.000000 -0.000000 0.000000 0.000000 0.000000 0.000000 0.000000 0.000000 0.000000 0.000000 -2.936659 -0.384741 -0.464948 5.156222 -0.348841 0.259486 6.041143 -8.770272 1.214674 -5.186591 12.999258 -0.610816 0.000000 0.000000 0.000000 0.000000 0.000000 0.000000 0.049138 1.812711 -9.200465 -1.153318 -1.151919 -0.807495 0.750496 0.019375 0.340518 0.000000 0.000000 0.000000 4.326782 1.326888 -10.426490 -4.674204 -1.442127 0.644296 10.573130 -13.219960 23.054485 0.000000 0.000000 0.000000
-80.926248 78.972041 343.758513 1.513280 -0.763530 9.853817 -2.800916 1.011566 -9.895978 -0.011525 -0.009377 -0.069578 1.430028 0.258333 0.155934 0.000000 0.000000 0.000000 1.430028 0.258333 0.155934 -0.000000 0.000000 0.000000 -0.000000 0.000000 0.000000 -0.000000 0.000000 0.000000 0.000000 0.000000 0.000000 0.000000 0.000000 0.000000 -2.323461 -0.419198 -0.436622 4.454645 -0.146974 0.271126 5.810054 -7.952499 0.797701 -3.219457 13.776345 -1.413766 0.000000 0.000000 0.000000 0.000000 0.000000 0.000000 -1.548124 2.379585 -9.198161 -0.480109 -1.343947 -1.037602 0.883353 0.038792 0.393383 0.000000 0.000000 0.000000 2.259634 2.534555 -10.211972 -3.294782 -2.136073 0.206762 11.844725 -11.269595 20.825544 0.000000 0.000000 0.000000
